<?xml version="1.0" encoding="UTF-8" standalone="no" ?>
<!DOCTYPE svg PUBLIC "-//W3C//DTD SVG 1.1//EN" "http://www.w3.org/Graphics/SVG/1.1/DTD/svg11.dtd">
<svg xmlns="http://www.w3.org/2000/svg" xmlns:xlink="http://www.w3.org/1999/xlink" version="1.1" width="500" height="500" viewBox="0 0 500 500" xml:space="preserve">
<desc>Created with Fabric.js 3.6.3</desc>
<defs>
</defs>
<g transform="matrix(3.2 0 0 3.2000000000000006 132 250)"  >
<circle style="stroke: none; stroke-width: 0; stroke-dasharray: none; stroke-linecap: butt; stroke-dashoffset: 0; stroke-linejoin: miter; stroke-miterlimit: 4; fill: rgb(82,114,255); fill-rule: nonzero; opacity: 1;"  cx="0" cy="0" r="25" />
</g>
<g transform="matrix(0.931467437552158 0 0 0.931467437552158 132 250)"  >
<path style="stroke: none; stroke-width: 0; stroke-dasharray: none; stroke-linecap: butt; stroke-dashoffset: 0; stroke-linejoin: miter; stroke-miterlimit: 4; fill: rgb(255,255,255); fill-rule: nonzero; opacity: 1;"  transform=" translate(-50.00026545886497, -50.00027244295763)" d="M 25.86 28.54 l 17.08 -13 A 17 17 0 0 1 59.28 13.2 L 86.51 23.59 a 15.58 15.58 0 0 0 5.55 1 h 4.48 A 2.36 2.36 0 0 1 98.91 27 v 33.3 a 2.36 2.36 0 0 1 -2.36 2.36 H 90.63 a 3.71 3.71 0 0 0 -2.33 0.83 l -1.35 1.1 a 0.81 0.81 0 0 1 -1.13 -0.12 L 54.09 25.91 a 2.6 2.6 0 0 0 -3.28 -0.62 L 36.27 33.44 a 10.72 10.72 0 0 1 -9.51 0.47 A 3.24 3.24 0 0 1 25.86 28.54 Z M 3.46 62.64 H 8.58 l 3.57 -4.37 A 9.14 9.14 0 0 1 28 61.62 a 9.12 9.12 0 0 1 6.35 6.3 a 9.12 9.12 0 0 1 5.33 4.16 a 9.2 9.2 0 0 1 5.11 2.61 A 9.49 9.49 0 0 1 46.1 86.05 l -0.48 0.85 a 0.06 0.06 0 0 0 0 0.08 a 5.22 5.22 0 0 0 8.11 -5.28 a 0.11 0.11 0 0 1 0.19 -0.11 l 0.39 0.38 a 5.39 5.39 0 0 0 6.79 0.68 a 5.23 5.23 0 0 0 2.14 -5.29 a 0.11 0.11 0 0 1 0.19 -0.11 l 0.39 0.38 a 5.39 5.39 0 0 0 6.78 0.68 A 5.23 5.23 0 0 0 72.78 73 a 0.11 0.11 0 0 1 0.19 -0.11 l 0.44 0.42 a 5.34 5.34 0 0 0 6.44 0.83 a 5.24 5.24 0 0 0 1.21 -8 l -3.2 -3.86 L 52 30.81 a 0.85 0.85 0 0 0 -1.08 -0.2 L 38.56 37.53 a 15.5 15.5 0 0 1 -13 1 a 8.31 8.31 0 0 1 -5.06 -5 a 9.36 9.36 0 0 1 0.86 -7.15 a 1.18 1.18 0 0 0 -1.05 -1.74 H 3.46 A 2.36 2.36 0 0 0 1.09 27 v 33.3 A 2.36 2.36 0 0 0 3.46 62.64 Z m 18.06 -2.39 a 4.57 4.57 0 0 0 -5.83 1.17 l -3.47 4.26 a 4.4 4.4 0 0 0 0.69 6.24 l 0.53 0.41 a 4.39 4.39 0 0 0 4.91 0.35 a 0.21 0.21 0 0 1 0.32 0.23 a 4.41 4.41 0 0 0 1.6 4.32 l 0.43 0.34 a 4.42 4.42 0 0 0 4.75 0.46 a 0.23 0.23 0 0 1 0.33 0.23 a 4.44 4.44 0 0 0 1.67 4 l 0.3 0.23 a 4.46 4.46 0 0 0 4.8 0.45 a 0.25 0.25 0 0 1 0.38 0.19 a 4.45 4.45 0 0 0 1.65 2.79 l 0.19 0.15 a 4.5 4.5 0 0 0 6.68 -1.31 l 0.65 -1.14 a 4.64 4.64 0 0 0 -0.78 -5.73 a 4.48 4.48 0 0 0 -4.86 -0.76 a 0.13 0.13 0 0 1 -0.19 -0.13 a 4.43 4.43 0 0 0 -6 -4.37 c -0.66 0.12 -0.52 -0.46 -0.52 -0.46 a 4.42 4.42 0 0 0 -6.23 -5.55 c -0.49 0.07 -0.43 -0.39 -0.43 -0.39 A 4.39 4.39 0 0 0 21.52 60.25 Z" stroke-linecap="round" />
</g>
<g transform="matrix(1 0 0 1 362.5 250.25)" style=""  ><path fill="#5272ff" opacity="1" d="M-118.78-17.33Q-112.51-17.33-109.03-14.73Q-105.56-12.12-105.56-6.99L-105.56-6.99Q-105.56-1.64-108.96 1.08Q-112.37 3.80-118.09 3.80L-118.09 3.80L-121.52 3.80L-121.52 14.37L-129.03 14.37L-129.03-17.33L-118.78-17.33ZM-118.73-1.59Q-116.08-1.59-114.68-2.85Q-113.29-4.11-113.29-6.99L-113.29-6.99Q-113.29-11.98-118.87-11.98L-118.87-11.98L-121.52-11.98L-121.52-1.59L-118.73-1.59Z"/><path fill="#5272ff" opacity="1" d="M-83.78 7.33Q-83.78 8.70-83.39 9.34Q-83.00 9.98-82.13 10.30L-82.13 10.30L-83.64 15.01Q-85.88 14.83-87.28 14.05Q-88.67 13.27-89.50 11.54L-89.50 11.54Q-91.88 15.15-96.82 15.15L-96.82 15.15Q-100.43 15.15-102.58 13.05Q-104.73 10.94-104.73 7.56L-104.73 7.56Q-104.73 3.57-101.80 1.47Q-98.88-0.63-93.34-0.63L-93.34-0.63L-90.87-0.63L-90.87-1.69Q-90.87-3.84-91.79-4.64Q-92.70-5.44-94.99-5.44L-94.99-5.44Q-96.18-5.44-97.87-5.09Q-99.56-4.75-101.35-4.16L-101.35-4.16L-102.99-8.91Q-100.71-9.78-98.31-10.24Q-95.90-10.70-93.84-10.70L-93.84-10.70Q-88.63-10.70-86.20-8.55Q-83.78-6.40-83.78-2.10L-83.78-2.10L-83.78 7.33ZM-94.71 9.98Q-93.52 9.98-92.54 9.39Q-91.56 8.79-90.87 7.69L-90.87 7.69L-90.87 3.35L-92.65 3.35Q-95.13 3.35-96.34 4.22Q-97.55 5.08-97.55 6.91L-97.55 6.91Q-97.55 8.38-96.80 9.18Q-96.04 9.98-94.71 9.98L-94.71 9.98Z"/><path fill="#5272ff" opacity="1" d="M-69.46-10.70Q-66.85-10.70-64.56-9.92Q-62.28-9.14-60.54-7.73L-60.54-7.73L-63.19-3.61Q-66.12-5.53-68.96-5.53L-68.96-5.53Q-70.56-5.53-71.34-5.05Q-72.11-4.57-72.11-3.70L-72.11-3.70Q-72.11-3.01-71.77-2.58Q-71.43-2.14-70.37-1.69Q-69.32-1.23-67.13-0.59L-67.13-0.59Q-63.33 0.51-61.48 2.27Q-59.62 4.03-59.62 7.14L-59.62 7.14Q-59.62 9.61-61.04 11.42Q-62.46 13.23-64.93 14.19Q-67.40 15.15-70.42 15.15L-70.42 15.15Q-73.49 15.15-76.12 14.19Q-78.75 13.23-80.58 11.54L-80.58 11.54L-77.01 7.56Q-75.64 8.70-73.99 9.34Q-72.34 9.98-70.65 9.98L-70.65 9.98Q-68.96 9.98-68.02 9.39Q-67.08 8.79-67.08 7.74L-67.08 7.74Q-67.08 6.87-67.45 6.34Q-67.81 5.82-68.86 5.38Q-69.92 4.95-72.20 4.31L-72.20 4.31Q-75.82 3.25-77.60 1.38Q-79.39-0.50-79.39-3.29L-79.39-3.29Q-79.39-5.39-78.18-7.06Q-76.96-8.73-74.70-9.72Q-72.43-10.70-69.46-10.70L-69.46-10.70Z"/><path fill="#5272ff" opacity="1" d="M-47.36-10.70Q-44.75-10.70-42.47-9.92Q-40.18-9.14-38.44-7.73L-38.44-7.73L-41.09-3.61Q-44.02-5.53-46.86-5.53L-46.86-5.53Q-48.46-5.53-49.24-5.05Q-50.02-4.57-50.02-3.70L-50.02-3.70Q-50.02-3.01-49.67-2.58Q-49.33-2.14-48.28-1.69Q-47.23-1.23-45.03-0.59L-45.03-0.59Q-41.23 0.51-39.38 2.27Q-37.53 4.03-37.53 7.14L-37.53 7.14Q-37.53 9.61-38.94 11.42Q-40.36 13.23-42.83 14.19Q-45.30 15.15-48.32 15.15L-48.32 15.15Q-51.39 15.15-54.02 14.19Q-56.65 13.23-58.48 11.54L-58.48 11.54L-54.91 7.56Q-53.54 8.70-51.89 9.34Q-50.24 9.98-48.55 9.98L-48.55 9.98Q-46.86 9.98-45.92 9.39Q-44.98 8.79-44.98 7.74L-44.98 7.74Q-44.98 6.87-45.35 6.34Q-45.72 5.82-46.77 5.38Q-47.82 4.95-50.11 4.31L-50.11 4.31Q-53.72 3.25-55.51 1.38Q-57.29-0.50-57.29-3.29L-57.29-3.29Q-57.29-5.39-56.08-7.06Q-54.87-8.73-52.60-9.72Q-50.34-10.70-47.36-10.70L-47.36-10.70Z"/><path fill="#5272ff" opacity="1" d="M-20.87-18.11Q-14.10-18.11-10.33-13.76Q-6.55-9.42-6.55-1.50L-6.55-1.50Q-6.55 3.67-8.27 7.42Q-9.98 11.17-13.21 13.16Q-16.44 15.15-20.87 15.15L-20.87 15.15Q-25.31 15.15-28.51 13.18Q-31.72 11.22-33.43 7.49Q-35.15 3.76-35.15-1.50L-35.15-1.50Q-35.15-6.63-33.43-10.38Q-31.72-14.13-28.51-16.12Q-25.31-18.11-20.87-18.11L-20.87-18.11ZM-20.87-12.62Q-24.12-12.62-25.70-9.99Q-27.28-7.36-27.28-1.50L-27.28-1.50Q-27.28 4.35-25.68 7.01Q-24.08 9.66-20.87 9.66L-20.87 9.66Q-17.58 9.66-16.00 7.03Q-14.42 4.40-14.42-1.50L-14.42-1.50Q-14.42-7.41-16.02-10.01Q-17.63-12.62-20.87-12.62L-20.87-12.62Z"/><path fill="#5272ff" opacity="1" d="M10.97-10.61Q12.30-10.61 13.39-10.29L13.39-10.29L12.25-3.29Q10.88-3.61 10.05-3.61L10.05-3.61Q7.95-3.61 6.81-2.14Q5.66-0.68 5.02 2.25L5.02 2.25L5.02 14.37L-2.21 14.37L-2.21-9.92L4.11-9.92L4.70-5.25Q5.52-7.77 7.19-9.19Q8.86-10.61 10.97-10.61L10.97-10.61Z"/><path fill="#5272ff" opacity="1" d="M26.52-17.33Q32.79-17.33 36.27-14.73Q39.75-12.12 39.75-6.99L39.75-6.99Q39.75-1.64 36.34 1.08Q32.93 3.80 27.21 3.80L27.21 3.80L23.78 3.80L23.78 14.37L16.28 14.37L16.28-17.33L26.52-17.33ZM26.57-1.59Q29.22-1.59 30.62-2.85Q32.01-4.11 32.01-6.99L32.01-6.99Q32.01-11.98 26.43-11.98L26.43-11.98L23.78-11.98L23.78-1.59L26.57-1.59Z"/><path fill="#5272ff" opacity="1" d="M61.52 7.33Q61.52 8.70 61.91 9.34Q62.30 9.98 63.17 10.30L63.17 10.30L61.66 15.01Q59.42 14.83 58.02 14.05Q56.63 13.27 55.80 11.54L55.80 11.54Q53.42 15.15 48.48 15.15L48.48 15.15Q44.87 15.15 42.72 13.05Q40.57 10.94 40.57 7.56L40.57 7.56Q40.57 3.57 43.50 1.47Q46.43-0.63 51.96-0.63L51.96-0.63L54.43-0.63L54.43-1.69Q54.43-3.84 53.52-4.64Q52.60-5.44 50.31-5.44L50.31-5.44Q49.12-5.44 47.43-5.09Q45.74-4.75 43.95-4.16L43.95-4.16L42.31-8.91Q44.60-9.78 47.00-10.24Q49.40-10.70 51.46-10.70L51.46-10.70Q56.67-10.70 59.10-8.55Q61.52-6.40 61.52-2.10L61.52-2.10L61.52 7.33ZM50.59 9.98Q51.78 9.98 52.76 9.39Q53.75 8.79 54.43 7.69L54.43 7.69L54.43 3.35L52.65 3.35Q50.18 3.35 48.96 4.22Q47.75 5.08 47.75 6.91L47.75 6.91Q47.75 8.38 48.51 9.18Q49.26 9.98 50.59 9.98L50.59 9.98Z"/><path fill="#5272ff" opacity="1" d="M75.84-10.70Q78.45-10.70 80.74-9.92Q83.03-9.14 84.76-7.73L84.76-7.73L82.11-3.61Q79.18-5.53 76.35-5.53L76.35-5.53Q74.74-5.53 73.97-5.05Q73.19-4.57 73.19-3.70L73.19-3.70Q73.19-3.01 73.53-2.58Q73.88-2.14 74.93-1.69Q75.98-1.23 78.18-0.59L78.18-0.59Q81.97 0.51 83.83 2.27Q85.68 4.03 85.68 7.14L85.68 7.14Q85.68 9.61 84.26 11.42Q82.84 13.23 80.37 14.19Q77.90 15.15 74.88 15.15L74.88 15.15Q71.82 15.15 69.19 14.19Q66.56 13.23 64.73 11.54L64.73 11.54L68.29 7.56Q69.67 8.70 71.31 9.34Q72.96 9.98 74.65 9.98L74.65 9.98Q76.35 9.98 77.28 9.39Q78.22 8.79 78.22 7.74L78.22 7.74Q78.22 6.87 77.86 6.34Q77.49 5.82 76.44 5.38Q75.38 4.95 73.10 4.31L73.10 4.31Q69.48 3.25 67.70 1.38Q65.91-0.50 65.91-3.29L65.91-3.29Q65.91-5.39 67.13-7.06Q68.34-8.73 70.60-9.72Q72.87-10.70 75.84-10.70L75.84-10.70Z"/><path fill="#5272ff" opacity="1" d="M97.94-10.70Q100.55-10.70 102.83-9.92Q105.12-9.14 106.86-7.73L106.86-7.73L104.21-3.61Q101.28-5.53 98.44-5.53L98.44-5.53Q96.84-5.53 96.06-5.05Q95.29-4.57 95.29-3.70L95.29-3.70Q95.29-3.01 95.63-2.58Q95.97-2.14 97.02-1.69Q98.08-1.23 100.27-0.59L100.27-0.59Q104.07 0.51 105.92 2.27Q107.78 4.03 107.78 7.14L107.78 7.14Q107.78 9.61 106.36 11.42Q104.94 13.23 102.47 14.19Q100.00 15.15 96.98 15.15L96.98 15.15Q93.91 15.15 91.28 14.19Q88.65 13.23 86.82 11.54L86.82 11.54L90.39 7.56Q91.76 8.70 93.41 9.34Q95.06 9.98 96.75 9.98L96.75 9.98Q98.44 9.98 99.38 9.39Q100.32 8.79 100.32 7.74L100.32 7.74Q100.32 6.87 99.95 6.34Q99.59 5.82 98.53 5.38Q97.48 4.95 95.19 4.31L95.19 4.31Q91.58 3.25 89.80 1.38Q88.01-0.50 88.01-3.29L88.01-3.29Q88.01-5.39 89.22-7.06Q90.44-8.73 92.70-9.72Q94.97-10.70 97.94-10.70L97.94-10.70Z"/></g></svg>